<svg width="333" height="333" viewBox="0 0 333 333" fill="none" xmlns="http://www.w3.org/2000/svg">
<path d="M268.2 34.8L169.4 300H104.6L186.6 84L205.4 90.8H89V34.8H268.2Z" fill="#5C81B8"/>
<path d="M133.737 271.977C132.583 272.984 131.537 274.066 130.6 275.221C129.675 276.347 129.002 277.48 128.582 278.622C128.063 280.033 127.939 281.249 128.211 282.27C128.484 283.291 129.19 284.011 130.332 284.431C131.112 284.718 131.929 284.678 132.78 284.309C133.613 283.899 134.446 283.302 135.28 282.518C136.126 281.704 136.937 280.843 137.714 279.936C138.428 279.107 139.211 278.321 140.064 277.578C140.899 276.794 141.829 276.165 142.856 275.69C143.853 275.205 144.99 274.941 146.267 274.899C147.514 274.847 148.933 275.113 150.525 275.699C152.207 276.317 153.608 277.327 154.729 278.729C155.85 280.13 156.552 281.837 156.834 283.851C157.086 285.853 156.759 288.085 155.853 290.548C155.389 291.809 154.794 293.056 154.067 294.289C153.322 295.481 152.462 296.614 151.487 297.687C150.483 298.75 149.36 299.718 148.118 300.59L144.088 295.835C144.946 295.264 145.766 294.611 146.548 293.875C147.311 293.099 147.984 292.29 148.567 291.447C149.149 290.604 149.584 289.793 149.872 289.012C150.159 288.231 150.341 287.412 150.418 286.553C150.476 285.654 150.329 284.85 149.976 284.14C149.635 283.401 148.983 282.854 148.022 282.501C147.361 282.258 146.678 282.262 145.972 282.514C145.276 282.735 144.565 283.138 143.839 283.723C143.123 284.279 142.44 284.931 141.789 285.68C141.023 286.558 140.186 287.443 139.277 288.336C138.369 289.229 137.378 290.024 136.303 290.72C135.21 291.375 134.012 291.803 132.71 292.006C131.389 292.168 129.933 291.956 128.341 291.371C126.419 290.663 124.907 289.63 123.805 288.269C122.714 286.879 122.05 285.254 121.814 283.394C121.547 281.523 121.745 279.55 122.406 277.475C123.39 274.802 124.501 272.755 125.739 271.336C126.988 269.886 128.292 268.661 129.649 267.66L133.737 271.977ZM144.061 260.738L147.712 261.519L147.409 261.51C146.375 260.243 145.713 258.891 145.423 257.454C145.103 256.007 145.247 254.457 145.855 252.806C146.252 251.724 146.751 250.834 147.349 250.133C147.959 249.403 148.669 248.863 149.48 248.513C150.26 248.153 151.155 248.038 152.163 248.171L152.125 248.413C151.203 247.119 150.582 245.748 150.263 244.3C149.954 242.823 150.037 241.439 150.512 240.147C151.23 238.195 152.355 236.853 153.886 236.12C155.398 235.347 157.03 235.266 158.783 235.877L173.559 241.313L171.255 247.575L159.092 243.099C158.21 242.809 157.455 242.685 156.826 242.726C156.167 242.756 155.647 243.196 155.267 244.045C154.891 245.066 154.931 246.069 155.386 247.055C155.823 248 156.531 248.857 157.509 249.626C158.469 250.354 159.534 250.934 160.705 251.365L168.769 254.332L166.449 260.638L154.286 256.163C153.404 255.873 152.637 255.778 151.986 255.88C151.316 255.94 150.791 256.395 150.41 257.244C150.046 258.235 150.097 259.208 150.563 260.164C151.011 261.079 151.709 261.915 152.658 262.674C153.617 263.402 154.668 263.976 155.809 264.396L163.962 267.396L161.642 273.702L141.956 266.459L144.061 260.738ZM179.541 226.724C178.867 228.555 177.893 230.09 176.62 231.326C175.327 232.521 173.755 233.273 171.903 233.58C170.051 233.887 167.939 233.605 165.566 232.732C163.344 231.914 161.588 230.757 160.298 229.259C159.007 227.761 158.197 226.116 157.868 224.324C157.508 222.521 157.633 220.794 158.24 219.142C158.958 217.19 159.83 215.84 160.856 215.092C161.862 214.303 162.877 213.722 163.901 213.349L164.567 213.901L161.9 212.254L164.054 206.398L183.74 213.641L181.42 219.948L177.14 218.373L178.674 218.375C178.652 218.435 178.766 218.681 179.016 219.114C179.236 219.536 179.475 220.136 179.735 220.913C179.975 221.65 180.101 222.514 180.111 223.506C180.161 224.48 179.972 225.552 179.541 226.724ZM175.068 223.032C175.344 222.281 175.488 221.567 175.499 220.889C175.479 220.2 175.342 219.553 175.088 218.948C174.803 218.331 174.391 217.737 173.852 217.163L169.032 215.39C168.283 215.387 167.594 215.543 166.967 215.858C166.31 216.161 165.74 216.599 165.256 217.172C164.743 217.733 164.337 218.419 164.039 219.23C163.707 220.131 163.638 221.06 163.831 222.018C164.006 222.934 164.415 223.767 165.06 224.516C165.705 225.265 166.554 225.832 167.605 226.219C168.656 226.606 169.69 226.714 170.708 226.542C171.726 226.371 172.618 225.984 173.386 225.38C174.165 224.746 174.726 223.963 175.068 223.032ZM168.534 194.224L174.155 195.627L173.294 195.464C172.333 194.462 171.629 193.317 171.183 192.027C170.707 190.727 170.42 189.513 170.323 188.386C170.238 187.23 170.289 186.396 170.476 185.885L176.667 188.521C175.945 189.926 175.722 191.276 175.996 192.57C176.27 193.865 176.842 194.996 177.713 195.964C178.585 196.933 179.591 197.627 180.732 198.047L188.435 200.881L186.131 207.143L166.445 199.9L168.534 194.224ZM165.274 176.394L167.594 170.087L176.153 173.236L177.91 168.461L182.82 170.268L181.064 175.043L195.929 180.512L193.609 186.819L178.743 181.349L177.616 184.413L172.706 182.606L173.833 179.543L165.274 176.394ZM205.223 155.252L170.717 142.556L170.733 142.511L203.64 133.699L201.982 136.26L183.247 108.5L183.28 108.41L217.787 121.106L215.383 127.638L195.607 120.361L199.135 121.199L210.955 138.283L210.922 138.373L190.732 144.038L188.038 141.768L207.544 148.945L205.223 155.252ZM224.149 105.482C223.475 107.314 222.501 108.848 221.228 110.084C219.936 111.28 218.364 112.031 216.511 112.339C214.659 112.646 212.547 112.363 210.175 111.49C207.952 110.673 206.196 109.515 204.906 108.017C203.616 106.52 202.806 104.875 202.476 103.083C202.117 101.28 202.241 99.5524 202.848 97.9007C203.567 95.9486 204.438 94.5986 205.464 93.8507C206.47 93.0616 207.485 92.4804 208.509 92.107L209.176 92.659L206.508 91.0127L208.663 85.1565L228.348 92.3994L226.028 98.7061L221.749 97.1315L223.282 97.1333C223.26 97.1933 223.374 97.4398 223.624 97.8727C223.844 98.2946 224.084 98.8942 224.343 99.6717C224.584 100.408 224.709 101.272 224.719 102.265C224.77 103.238 224.58 104.311 224.149 105.482ZM219.676 101.791C219.953 101.04 220.096 100.325 220.107 99.6474C220.088 98.9584 219.951 98.3113 219.696 97.7061C219.411 97.0899 218.999 96.4951 218.46 95.9216L213.64 94.1482C212.891 94.1453 212.203 94.3013 211.575 94.6161C210.918 94.9198 210.348 95.3578 209.864 95.9301C209.351 96.4913 208.945 97.1774 208.647 97.9883C208.315 98.8892 208.246 99.8185 208.439 100.776C208.614 101.693 209.023 102.525 209.669 103.274C210.314 104.023 211.162 104.591 212.213 104.977C213.264 105.364 214.298 105.472 215.316 105.301C216.334 105.13 217.226 104.742 217.994 104.138C218.773 103.504 219.334 102.722 219.676 101.791ZM235.821 73.7568C235.39 74.928 234.755 76.0069 233.915 76.9934C233.055 77.9389 232.082 78.6378 230.995 79.0903L229.214 78.2305L242.503 83.1199L240.199 89.3816L210.603 78.4922L212.592 73.0865L216.753 73.5944L215.219 73.5927C214.724 72.2512 214.423 70.8448 214.316 69.3735C214.21 67.9022 214.46 66.3407 215.068 64.689C215.742 62.857 216.78 61.3805 218.181 60.2594C219.552 59.1273 221.198 58.4541 223.118 58.2399C225.019 57.9847 227.096 58.2714 229.348 59.1001C231.571 59.9178 233.291 61.0794 234.51 62.585C235.729 64.0905 236.446 65.8033 236.66 67.7234C236.875 69.6434 236.595 71.6546 235.821 73.7568ZM230.402 73.1949C230.778 72.1739 230.895 71.16 230.754 70.1534C230.624 69.1167 230.247 68.1939 229.624 67.3851C228.982 66.5351 228.136 65.9168 227.085 65.53C225.974 65.1212 224.924 65.0079 223.936 65.19C222.93 65.3311 222.052 65.7242 221.303 66.3693C220.536 66.9734 219.975 67.7559 219.621 68.7169C219.312 69.5578 219.156 70.3528 219.153 71.1019C219.131 71.8099 219.251 72.5021 219.514 73.1783C219.758 73.8135 220.144 74.4329 220.672 75.0363L225.492 76.8098C226.211 76.8016 226.894 76.6606 227.54 76.387C228.186 76.1133 228.76 75.7108 229.263 75.1796C229.746 74.6073 230.126 73.9457 230.402 73.1949ZM243.841 51.5426C243.245 53.1643 242.401 54.5759 241.311 55.7775C240.232 56.949 239.006 57.8274 237.631 58.4127L235.124 54.5238C236.348 53.8832 237.305 53.2293 237.993 52.5621C238.663 51.8538 239.12 51.1693 239.363 50.5086C239.551 49.998 239.671 49.531 239.725 49.1074C239.759 48.6428 239.716 48.2517 239.594 47.9341C239.442 47.6054 239.186 47.3748 238.826 47.2422C238.315 47.0543 237.832 47.1154 237.377 47.4253C236.933 47.7053 236.505 48.1274 236.093 48.6918C235.651 49.2451 235.192 49.8435 234.716 50.4869C233.483 52.0788 232.176 53.0814 230.797 53.4944C229.398 53.8664 228.054 53.8149 226.762 53.3397C225.771 52.9751 224.874 52.3552 224.071 51.48C223.249 50.5638 222.717 49.4135 222.476 48.0292C222.216 46.6038 222.424 44.9752 223.098 43.1432C223.705 41.4915 224.384 40.1558 225.135 39.1361C225.885 38.1164 226.823 37.2342 227.95 36.4893L230.765 40.236C230.105 40.6408 229.492 41.1484 228.926 41.7587C228.342 42.3278 227.924 42.9072 227.673 43.4968C227.444 44.0263 227.333 44.5139 227.339 44.9596C227.357 45.3752 227.447 45.7323 227.61 46.031C227.773 46.3296 227.99 46.5286 228.26 46.6281C228.819 46.868 229.347 46.8235 229.843 46.4946C230.35 46.1357 230.827 45.6289 231.272 44.9745C231.717 44.32 232.187 43.6916 232.682 43.0893C233.336 42.2388 234.045 41.562 234.81 41.0592C235.574 40.5563 236.383 40.2572 237.237 40.162C238.071 40.0258 238.984 40.1399 239.975 40.5046C241.176 40.9466 242.201 41.6818 243.05 42.7102C243.88 43.6976 244.394 44.9435 244.59 46.4479C244.798 47.9223 244.548 49.6205 243.841 51.5426Z" fill="white"/>
</svg>
